<?xml version="1.0" encoding="iso-8859-1"?>
<!-- Uploaded to: SVG Repo, www.svgrepo.com, Generator: SVG Repo Mixer Tools -->
<svg version="1.1" id="Layer_1" xmlns="http://www.w3.org/2000/svg" xmlns:xlink="http://www.w3.org/1999/xlink" 
	 viewBox="0 0 512 512" xml:space="preserve">
<circle style="fill:#FAC15C;" cx="424.092" cy="163.926" r="80.015"/>
<circle style="fill:#F18D6D;" cx="424.092" cy="163.926" r="56.01"/>
<circle style="fill:#FFFFFF;" cx="424.092" cy="163.926" r="16.003"/>
<rect y="298.951" style="fill:#ED7149;" width="504.107" height="26.405"/>
<g>
	<path style="fill:#1D1D1B;" d="M424.09,227.833c-35.238,0-63.905-28.667-63.905-63.905c0-35.237,28.668-63.906,63.905-63.906
		s63.905,28.668,63.905,63.906C487.994,199.166,459.328,227.833,424.09,227.833z M424.09,115.81
		c-26.534,0-48.119,21.586-48.119,48.12c0,26.532,21.586,48.119,48.119,48.119s48.118-21.586,48.118-48.119
		C472.208,137.395,450.623,115.81,424.09,115.81z"/>
	<path style="fill:#1D1D1B;" d="M424.09,187.825c-13.177,0-23.897-10.72-23.897-23.896c0-13.177,10.72-23.896,23.897-23.896
		c13.176,0,23.896,10.72,23.896,23.896C447.987,177.106,437.267,187.825,424.09,187.825z M424.09,155.818
		c-4.473,0-8.111,3.638-8.111,8.11c0,4.472,3.638,8.11,8.111,8.11c4.472,0,8.11-3.638,8.11-8.11
		C432.201,159.457,428.562,155.818,424.09,155.818z"/>
	<rect x="488.215" y="419.979" style="fill:#1D1D1B;" width="15.786" height="16.003"/>
	<rect x="8.111" y="419.979" style="fill:#1D1D1B;" width="15.786" height="16.003"/>
	<path style="fill:#1D1D1B;" d="M431.983,251.466C476.769,247.46,512,209.741,512,163.928c0-48.474-39.436-87.91-87.91-87.91
		s-87.91,39.437-87.91,87.91c0,45.812,35.23,83.53,80.017,87.538v40.598H0.108v39.792h32.007v8.219H8.111v71.906h15.786v-56.12
		h392.3v30.595l-13.454,33.635h-18.661v15.786h80.016v-15.786h-18.661l-13.454-33.634v-30.596h56.23v56.12h15.786v-71.906h-24.006
		v-8.219H512v-39.792h-80.017L431.983,251.466L431.983,251.466z M351.967,163.928c0-39.77,32.354-72.124,72.124-72.124
		c39.769,0,72.124,32.354,72.124,72.124c0,39.769-32.354,72.123-72.124,72.123C384.321,236.053,351.967,203.697,351.967,163.928z
		 M419.744,420.092l4.345-10.863l4.345,10.863H419.744z M15.895,307.85h400.302v8.219H15.895V307.85z M47.902,340.074v-8.219
		h368.296v8.219H47.902z M464.207,340.074h-32.224v-8.219h32.224V340.074z M496.214,307.85v8.219h-64.231v-8.219H496.214z"/>
</g>
</svg>