<svg xmlns="http://www.w3.org/2000/svg" version="1.1" viewBox="-5.0 -10.0 110.0 135.0">
 <path d="m79.562 36.32c-1.1055 0-2-0.89453-2-2 0-1.1055 0.89453-2 2-2h0.78125c1.1055 0 2 0.89453 2 2 0 1.1055-0.89453 2-2 2zm7.4219 0c-1.1055 0-2-0.89453-2-2 0-1.1055 0.89453-2 2-2h3.7656v-2.7734h-29.164v2.7734h11.336c1.1055 0 2 0.89453 2 2 0 1.1055-0.89453 2-2 2h-11.336v2.0273h1.0508c1.1055 0 2 0.89453 2 2 0 1.1055-0.89453 2-2 2h-1.0508v2.4258h1.0508c1.1055 0 2 0.89453 2 2 0 1.1055-0.89453 2-2 2h-1.0508v2.4258h1.0508c1.1055 0 2 0.89453 2 2s-0.89453 2-2 2h-1.0508v2.4258h1.0508c1.1055 0 2 0.89453 2 2s-0.89453 2-2 2h-1.0508v9.2188c1.043 0.37891 2.0234 0.70312 2.7461 0.66406 0.70312-0.042968 1.5898-0.51172 2.4961-0.99609 1.4414-0.76562 2.9336-1.5586 4.9297-1.5859 1.7773-0.027343 3.5508 0.60156 5.2383 1.1992 1.3047 0.46094 2.5469 0.89844 3.2031 0.82812 0.45312-0.050781 1.0117-0.65234 1.5781-1.2734 0.87109-0.94922 1.7656-1.9219 3.2383-2.4336 2.8086-0.97656 6.5508 0.39844 10.305 1.8047 1.0547 0.30469 1.6641 1.4102 1.3633 2.4648-0.30078 1.0625-1.4062 1.6758-2.4688 1.375l-0.15625-0.058594c-3.1211-1.1719-6.2461-2.3398-7.7305-1.8242-0.52344 0.18359-1.0781 0.78125-1.6172 1.3672-1.0781 1.1719-2.1367 2.3203-4.0781 2.5391-1.5625 0.17188-3.2266-0.41797-4.9688-1.0312-1.3711-0.48437-2.8164-0.99609-3.8633-0.98047-0.98828 0.011718-2.0625 0.58594-3.0977 1.1328-1.2891 0.68359-2.543 1.3516-4.1406 1.4453-1.5938 0.09375-3.0664-0.43359-4.6055-0.99219l-1.1328-0.40234c-0.91406-0.3125-1.8281-0.56641-2.6523-0.57422-1.0703-0.007813-2.3672 0.39453-3.625 0.78906-1.7969 0.5625-3.5508 1.1094-5.3867 0.83594-1.6602-0.25-2.9766-1.1055-4.293-1.9688-1.0391-0.67969-2.0859-1.3594-2.9883-1.4102-0.23438-0.011718-0.48828 0.007813-0.76172 0.058594l-0.26953 0.058594c-0.84766 0.19922-1.8438 0.61328-2.8516 1.0391-1.5859 0.66406-3.1953 1.3477-4.8945 1.5078-1.918 0.18359-3.5391-0.30078-5.1562-0.78125-1.2227-0.36719-2.4453-0.73047-3.5547-0.64062-1.1836 0.09375-2.6211 0.70703-4.0391 1.3125-1.6992 0.72656-3.3867 1.4453-5.1367 1.5859-1.8867 0.14844-3.5898-0.39453-5.1875-1.2773-1.4414-0.80859-2.7461-1.8477-4.043-2.8867-0.85938-0.6875-1-1.9375-0.3125-2.7969s1.9375-1 2.7969-0.3125c1.1719 0.9375 2.3438 1.875 3.4766 2.5039 0.97656 0.53125 1.9609 0.86719 2.957 0.78906 1.1133-0.085938 2.4922-0.67969 3.8867-1.2734 1.7227-0.73438 3.4648-1.4805 5.2891-1.6211 1.8438-0.14453 3.4297 0.32812 5.0117 0.79687 1.2539 0.37109 2.5156 0.75 3.6406 0.64063 1.0938-0.10547 2.4219-0.66406 3.7227-1.2109 0.71094-0.30078 1.4141-0.59766 2.125-0.84766v-6.7773h-1.0508c-1.1055 0-2-0.89453-2-2s0.89453-2 2-2h1.0508v-2.4258h-1.0508c-1.1055 0-2-0.89453-2-2s0.89453-2 2-2h1.0508v-2.4258h-1.0508c-1.1055 0-2-0.89453-2-2 0-1.1055 0.89453-2 2-2h1.0508v-2.4258h-1.0508c-1.1055 0-2-0.89453-2-2 0-1.1055 0.89453-2 2-2h1.0508v-2.0273h-29.332c-1.1055 0-2-0.89453-2-2v-6.7695c0-1.1055 0.89453-2 2-2h29.332v-3.4219c0-2.1211 0.86719-4.0547 2.2617-5.4492 1.3945-1.3945 3.3242-2.2617 5.4453-2.2617 2.1172 0 4.043 0.86719 5.4375 2.2617 1.4023 1.4023 2.2695 3.3281 2.2695 5.4492v3.4219h5.5898v-3.4219c0-2.1172 0.86719-4.043 2.2617-5.4375 1.3945-1.4023 3.3242-2.2695 5.4453-2.2695 2.1172 0 4.043 0.86719 5.4375 2.2617 1.4023 1.4023 2.2695 3.3281 2.2695 5.4492v3.4219h19.742c1.1055 0 2 0.89453 2 2v6.7695c0 1.1055-0.89453 2-2 2h-5.7656zm-29.398-6.7695h-17.012v2.7734h17.012zm-21.008 0h-27.332v2.7734h27.332zm4-4h7.4219v-3.4219c0-1.0195-0.41797-1.9492-1.0898-2.6211-0.67188-0.66797-1.6016-1.0898-2.6211-1.0898-1.0156 0-1.9453 0.42188-2.6172 1.0938s-1.0938 1.6016-1.0938 2.6172zm21.008 0h7.4219v-3.4219c0-1.0195-0.41797-1.9492-1.0898-2.6211-0.67188-0.66797-1.6016-1.0898-2.6211-1.0898-1.0156 0-1.9453 0.42188-2.6172 1.0938-0.67188 0.66797-1.0938 1.5977-1.0938 2.6172zm-4 10.77h-17.012v2.0273h17.012zm-17.012 6.0273v2.4258h17.012v-2.4258zm0 6.4297v2.4258h17.012v-2.4258zm0 6.4297v2.4258h17.012v-2.4258zm0 6.4297v6.1992c1.7383 0.22656 3.1016 1.1172 4.4648 2.0078 0.94922 0.61719 1.8945 1.2344 2.7148 1.3594 0.9375 0.14062 2.2578-0.26953 3.6094-0.69141 1.5312-0.47656 3.1094-0.96875 4.8281-0.96094 0.48047 0.003907 0.94141 0.046875 1.3945 0.11328v-8.0273zm-36.59 19.758c-0.85938-0.6875-1-1.9375-0.3125-2.7969s1.9375-1 2.7969-0.3125c2.1602 1.7266 4.3242 3.4609 6.4336 3.293 1.1133-0.085937 2.4922-0.67969 3.8828-1.2734 1.7266-0.73828 3.4688-1.4805 5.293-1.6211 1.8438-0.14844 3.4297 0.32422 5.0117 0.79688 1.2539 0.37109 2.5156 0.75 3.6406 0.64062 1.0938-0.10547 2.4219-0.66406 3.7227-1.2109 1.8828-0.79688 3.7344-1.5703 5.6445-1.4648 1.9688 0.10938 3.4609 1.0859 4.9414 2.0508 0.94922 0.61719 1.8945 1.2344 2.7148 1.3594 0.9375 0.14062 2.2578-0.27344 3.6055-0.69141 1.5312-0.48047 3.1094-0.97266 4.8281-0.96094 1.8672 0.011719 3.4922 0.60547 5.0391 1.1719 1.1797 0.43359 2.3008 0.83984 3.1016 0.79688 0.70312-0.042969 1.5859-0.51172 2.5-0.99219 1.4414-0.76563 2.9336-1.5586 4.9297-1.5859 1.7773-0.027344 3.5508 0.60156 5.2383 1.1992 1.3008 0.46094 2.5469 0.89844 3.2031 0.82812 0.45312-0.050782 1.0117-0.65234 1.5781-1.2695 0.87109-0.94922 1.7695-1.9219 3.2383-2.4336 2.8086-0.97656 6.5508 0.39844 10.305 1.8047 1.0547 0.30469 1.6641 1.4102 1.3633 2.4648-0.30078 1.0625-1.4062 1.6758-2.4688 1.375l-0.15625-0.058594c-3.1211-1.1719-6.2461-2.3398-7.7305-1.8203-0.52344 0.18359-1.0781 0.78125-1.6172 1.3672-1.0781 1.1719-2.1367 2.3203-4.0781 2.5352-1.5586 0.17187-3.2266-0.41406-4.9688-1.0312-1.3711-0.48438-2.8164-0.99609-3.8633-0.98047-0.98828 0.011719-2.0625 0.58203-3.0977 1.1328-1.2891 0.68359-2.543 1.3516-4.1406 1.4453-1.6289 0.097656-3.1367-0.44922-4.7109-1.0273-1.2422-0.45703-2.5508-0.93359-3.6797-0.9375-1.0742-0.007812-2.3672 0.39453-3.625 0.78906-1.7969 0.5625-3.5469 1.1094-5.3867 0.83594-1.6602-0.25-2.9766-1.1094-4.293-1.9688-1.0391-0.67969-2.0859-1.3594-2.9883-1.4102-1.0078-0.058594-2.4336 0.54297-3.8789 1.1523-1.5859 0.66406-3.1953 1.3477-4.8945 1.5078-1.918 0.18359-3.5391-0.30078-5.1562-0.78125-1.2227-0.36719-2.4492-0.73047-3.5586-0.64062-1.1875 0.09375-2.6211 0.70312-4.043 1.3125-1.6992 0.72656-3.3828 1.4453-5.1328 1.5859-3.6602 0.28906-6.4453-1.9414-9.2305-4.168z"/>
<text x="0.0" y="117.5" font-size="5.0" font-weight="bold" font-family="Arbeit Regular, Helvetica, Arial-Unicode, Arial, Sans-serif" fill="#000000">Created by marwati</text><text x="0.0" y="122.5" font-size="5.0" font-weight="bold" font-family="Arbeit Regular, Helvetica, Arial-Unicode, Arial, Sans-serif" fill="#000000">from Noun Project</text></svg>