<?xml version="1.0" encoding="UTF-8"?>
<svg width="1200pt" height="1200pt" version="1.1" viewBox="0 0 1200 1200" xmlns="http://www.w3.org/2000/svg">
 <path d="m167.73 979.8c52.895 0 95.723-42.984 95.723-95.891 0-52.883-42.828-95.773-95.723-95.773-52.906 0-95.902 42.863-95.902 95.773 0 52.906 42.984 95.891 95.902 95.891z"/>
 <path d="m937.36 436.26c-3.1211-2.0898-6.4336-3.8047-9.7578-5.2422l-330.56-98.676c-1.3438-0.46875-2.7109-0.875-4.1172-1.2227l-0.49219-0.14453-0.011719 0.011719c-3.8047-0.92578-7.7539-1.4766-11.855-1.4766-25.441 0-50.305 29.762-50.305 50.953l-0.37109 232.25-231.61 216.91c-30.156 38.113-14.258 83.723-14.258 83.723 16.609 50.508 73.391 52.285 73.391 52.285l413.27 0.13281c22.043 0 39.949-18.012 39.949-40.367 0-22.391-17.902-40.391-39.949-40.391l-285.31-0.46875 120.16-120.9c17.172-17.844 25.906-37.859 25.906-63.938 0-23.461-1.8711-228.59-2.125-255.65l258.9 78.707c21.395 9.2539 46.871 2.3984 60.973-17.125 16-22.52 10.695-53.637-11.816-69.379z"/>
 <path d="m913.04 415.7 105.27-105.5c18.156-14.641 23.914-40.379 13.199-61.945-12.504-24.625-42.516-34.391-66.91-21.781-3.3008 1.8008-6.3711 3.9258-9.1914 6.2031l-150.48 150.76z"/>
 <path d="m709.05 479.47-63.07 63.168v140.72l170.77-171.16z"/>
 <path d="m919.05 526.84c-125.09 0-226.49 101.4-226.49 226.49 0 43.824 12.48 84.707 34.031 119.38l49.895 0.085937c28.246 0 51.18 23.062 51.18 51.742 0 11.734-3.875 22.477-10.355 31.141 30.602 15.406 65.148 24.145 101.75 24.145 125.07 0 226.48-101.39 226.48-226.48 0.003907-125.09-101.41-226.5-226.48-226.5z"/>
</svg>
