<svg xmlns="http://www.w3.org/2000/svg" version="1.1" viewBox="-5.0 -10.0 110.0 135.0">
 <path d="m32.879 50.707c-0.16406 0-0.28125 0.09375-0.28125 0.21094 0 0.11719 0.12891 0.21094 0.28125 0.21094s0.28125-0.09375 0.28125-0.21094c0-0.11719-0.11719-0.21094-0.28125-0.21094z"/>
 <path d="m47.953 56.434c-0.011719 0-0.23438-0.082032-0.49219-0.070313-0.25781 0.023438-0.60156 0.26953-0.64844 0.29297-0.046875 0.035156-0.058594 0.10547-0.023438 0.16406 0.023438 0.035157 0.058594 0.046876 0.09375 0.046876 0.023438 0 0.046876-0.011719 0.070313-0.023438 0.09375-0.070312 0.36328-0.23438 0.51562-0.24609 0.19922-0.023437 0.39844 0.046875 0.39844 0.046875 0.058593 0.023438 0.12891-0.011719 0.15234-0.070312 0.027344-0.058594-0.007812-0.11719-0.066406-0.14062z"/>
 <path d="m47.941 53.867c-0.12891-0.011719-0.42188-0.12891-0.52734-0.16406-0.058593-0.023437-0.12891 0-0.15234 0.070313-0.023438 0.058593 0 0.12891 0.070312 0.15234 0.046875 0.011719 0.41016 0.16406 0.58984 0.17578h0.011719c0.058594 0 0.10547-0.046874 0.11719-0.10547 0.007813-0.070313-0.039062-0.11719-0.10938-0.12891z"/>
 <path d="m89.711 28.797h-0.035157c-0.15234 0-0.28125 0.12891-0.28125 0.28125v0.31641h-0.24609c-0.070313 0-0.11719 0.046875-0.11719 0.11719v0.11719h-0.11719c-0.070312 0-0.11719 0.046875-0.11719 0.11719h-0.16406v-1.3398c0-0.058594-0.046874-0.10547-0.10547-0.11719v-1.0469c0-0.070313-0.046875-0.11719-0.11719-0.11719h-0.082031l-0.003906-18.27c0.046875-0.011719 0.09375-0.058594 0.09375-0.11719v-1.293c0.023437-0.011718 0.035156-0.023437 0.058593-0.046874l0.44531-0.82422v-0.011719-0.011719c0-0.011719 0.011719-0.023437 0.011719-0.035156s0-0.023437-0.011719-0.035156v-0.011719l-0.29297-0.58984c-0.023437-0.035156-0.058594-0.058594-0.10547-0.058594h-2.0117c-0.058594 0-0.11719 0.046876-0.11719 0.11719h-47v-0.058594c0-0.070312-0.046875-0.11719-0.11719-0.11719h-1.0586c0-0.058594-0.058594-0.11719-0.11719-0.11719h-2.9883c-0.058593 0-0.11719 0.046875-0.11719 0.11719h-1.0352c-0.070313 0-0.11719 0.046875-0.11719 0.11719v0.058594h-21.285c0-0.058594-0.058594-0.11719-0.11719-0.11719h-2.0234c-0.046875 0-0.082031 0.023438-0.10547 0.058594l-0.29297 0.58984v0.011719c0 0.011719-0.011719 0.023437-0.011719 0.035156s0 0.023437 0.011719 0.035156v0.011719 0.011719l0.44531 0.82422c0.023437 0.035156 0.058594 0.058593 0.09375 0.058593v1.2461c-0.058594 0-0.10547 0.058594-0.10547 0.11719v1.0469h-0.011719c-0.070312 0-0.11719 0.046874-0.11719 0.11719v2.9883c0 0.070313 0.046875 0.11719 0.11719 0.11719h0.011719v1.0586c0 0.070312 0.046875 0.11719 0.11719 0.11719h0.082032v46.766h-0.30469c-0.070312 0-0.11719 0.046875-0.11719 0.11719v6.1719c0 0.070313 0.046875 0.11719 0.11719 0.11719h1.3164v26.824c0 0.070312 0.046876 0.11719 0.11719 0.11719h7.0078c0.058594 0 0.11719-0.046875 0.11719-0.11719 0-0.082031 0.070312-2.5391 0.1875-5.9609h3.2578c0.058594 0 0.11719-0.046875 0.11719-0.11719 0.011719-0.1875 0.74219-19.285 1.1172-20.906 0.28125-1.2227 1.1289-1.4102 1.4805-1.4336h49.094c0.070313 0 1.5625 0 1.8477 1.5039 0.30469 1.5977 1.0703 20.648 1.082 20.836 0 0.058594 0.058594 0.11719 0.11719 0.11719h2.6367c0.11719 3.4102 0.1875 5.8789 0.1875 5.9609 0 0.058593 0.058594 0.11719 0.11719 0.11719h6.9023c0.070313 0 0.11719-0.046875 0.11719-0.11719l0.003906-26.824h1.4688c0.070313 0 0.11719-0.046875 0.11719-0.11719v-6.1719c0-0.070313-0.046874-0.11719-0.11719-0.11719h-0.30469v-28.34h0.082031c0.070312 0 0.11719-0.046875 0.11719-0.11719v-1.0469c0.058594-0.011719 0.10547-0.058594 0.10547-0.11719v-1.2461h0.16406c0 0.058594 0.058593 0.10547 0.11719 0.10547h0.11719v0.14062c0 0.070313 0.046876 0.11719 0.11719 0.11719h0.24609v0.32812c0 0.15234 0.12891 0.28125 0.28125 0.28125h0.035156c0.15234 0 0.28125-0.12891 0.28125-0.28125v-1.7773c-0.007812-0.15234-0.13672-0.28125-0.28906-0.28125zm-1.457 3.6602c-0.011718 0-0.023437-0.011719-0.035156-0.011719s-0.023438 0-0.035156 0.011719h-1.1406v-0.92969h1.2578v0.92969zm-77.648-19.605h-0.046875v-0.070312h1.4922v0.070312zm0.023437-2.75h1.3984c0.023437 0 0.023437 0 0.035156 0.011719v0.058594h-1.5039v-0.058594s-0.011719-0.011719 0.070312-0.011719zm1.8125-2.6445c0.070313 0 0.11719-0.046875 0.11719-0.11719v-0.10547h0.16406l2.3516 1.7773c0.011719 0.011719 0.023437 0.023437 0.046875 0.035156l0.24609 0.1875 0.011718 0.011719c0.082032 0.058594 0.12891 0.15234 0.14062 0.24609s-0.011719 0.19922-0.070312 0.28125c-0.058594 0.082031-0.15234 0.12891-0.24609 0.14062-0.09375 0.011719-0.19922-0.011718-0.28125-0.070312l-2.8086-2.0586v-0.31641zm21.508 0.023438h1.0352c0 0.058593 0.058594 0.11719 0.11719 0.11719h0.84766l0.32812 0.41016c-0.11719 0.011719-0.14062 0.035157-0.15234 0.058594-0.023438 0.023438-0.035156 0.058594-0.035156 0.082032v0.19922c-0.53906 0.035156-0.60156 0.14062-0.60156 0.24609v0.39844c0 0.023437 0 0.035156 0.011719 0.046874l-18.766 0.003907v-0.011719c0-0.070312-0.046875-0.11719-0.11719-0.11719h-1.0703c-0.10547-0.058593-0.22266-0.082031-0.35156-0.082031l-2.0938-1.5742h20.73v0.12891c0 0.035156 0.058594 0.09375 0.11719 0.09375zm1.293-1.6133h0.058593v1.4922h-0.058593c0-0.023437-0.011719-0.046875-0.023438-0.058594v-1.375c0.023438-0.023437 0.023438-0.035156 0.023438-0.058593zm2.8594 1.7305c0.058594 0 0.11719-0.046875 0.11719-0.11719h1.0586c0.070312 0 0.11719-0.046875 0.11719-0.11719v-0.12891h46.531l-2.1289 1.6094c-0.12891 0-0.24609 0.035156-0.35156 0.082031h-1.0703c-0.058594 0-0.10547 0.046875-0.11719 0.10547h-41.652v-0.046875c0-0.070313-0.046875-0.11719-0.11719-0.11719h-0.92969c-0.011719-0.058594-0.058594-0.10547-0.11719-0.10547h-0.90625l-0.74219-1.1758h0.30469zm48.41-0.14062h0.38672v0.35156l-2.8203 2.0703c-0.082031 0.058594-0.17578 0.082032-0.28125 0.070313-0.09375-0.011719-0.1875-0.070313-0.24609-0.14062-0.058593-0.082032-0.082031-0.17578-0.070312-0.28125 0.011719-0.09375 0.070312-0.1875 0.15234-0.24609l0.25781-0.19922c0.011719-0.011719 0.023437-0.011719 0.035156-0.023437l2.3867-1.8281h0.082031v0.10547c0 0.0625 0.046875 0.12109 0.11719 0.12109zm1.6602 19.918c0.011719 0.011719 0.035156 0.011719 0.046875 0.011719s0.035156 0 0.046875-0.011719h0.035156v0.92969h-1.2578v-0.92969h0.035156c0.011719 0 0.023437 0.011719 0.046875 0.011719s0.035156 0 0.046875-0.011719zm0.21094 3.918h-1.3984c-0.011719-0.011719-0.035156-0.011719-0.046875-0.011719h-0.011719v-2.7383h0.011719c0.011719 0 0.035156 0 0.046875-0.011719h1.3984c0.011719 0 0.023438 0 0.035157 0.011719v2.7383c-0.023438 0-0.035157 0.011719-0.035157 0.011719zm-3.1641-1.9766h-0.023438c-0.14062 0-0.25781 0.11719-0.25781 0.25781v0.26953h-0.21094c-0.046874 0-0.09375 0.035156-0.10547 0.082031-0.035156-0.035156-0.070313-0.070312-0.11719-0.09375l-0.21094-0.12891v-0.71875c0-0.058594-0.035157-0.09375-0.09375-0.11719v-0.21094l1.0703 0.66016h-0.050781zm0.023438 0.25781v1.5742c0 0.011718-0.011719 0.023437-0.023438 0.023437h-0.023438c-0.011718 0-0.023437-0.011719-0.023437-0.023437v-1.5742c0-0.011719 0.011719-0.023438 0.023437-0.023438h0.023438c0.011719 0 0.023438 0.011719 0.023438 0.023438zm-0.31641 0.50391v0.55078h-0.09375v-0.55078zm-73.027 28.434h75.035v1.0117h-75.035zm0.25-0.23438 4.3398-3.082h12.406c0.011719 0 0.035157 0 0.046875-0.011718 0.375 0.60156 1 0.96484 1.8828 1.0703h0.023437l0.28125-0.011718c0 0.058593 0.011719 0.11719 0.035156 0.19922 0.070313 0.23438 0.43359 0.32812 1.4102 0.375 0.10547 0 0.21094 0.011719 0.31641 0.011719 0.49219 0 0.84766-0.046875 0.85938-0.046875 0.23438-0.023438 0.74219-0.12891 0.96484-0.42188 0.09375-0.11719 0.12891-0.24609 0.10547-0.38672v-0.023437c0.011719-0.011719 0.046876-0.011719 0.070313-0.011719 0.15234 0.035156 1.9414 0.52734 2.375 0.71875 0.19922 0.23438 0.41016 0.26953 0.50391 0.26953h0.023438l0.73047 0.09375h0.011718c0.09375 0.023438 0.19922 0.046875 0.30469 0.058594 0.36328 0.035156 0.85938 0.058594 1.3867 0.09375 0.68359 0.035156 1.375 0.070313 1.9414 0.14062 1.0117 0.11719 2.375 0.21094 3.1875 0.14062 0.625-0.046875 1.7656 0.035156 2.5859 0.10547 0.23438 0.023437 0.44531 0.035156 0.61328 0.046875 0.88281 0.058593 4.832-0.011719 4.8672-0.011719 0.38672-0.011719 0.64844-0.035156 0.83594-0.058594 0.24609-0.035156 0.375-0.046875 0.53906 0.023438 0.14062 0.058594 0.22266 0.10547 0.30469 0.14062 0.09375 0.046875 0.16406 0.09375 0.30469 0.11719 0.023438 0 0.60156 0.12891 1.1992 0.12891 0.29297 0 0.69531 0.011719 1.082 0.023438 0.36328 0.011719 0.71875 0.023438 0.97656 0.023438 0.14063 0 0.25781 0.011718 0.36328 0.011718 0.082031 0 0.16406 0.011719 0.23438 0.011719 0.15234 0 0.28125-0.023437 0.35156-0.10547 0.11719 0.011719 0.42188 0.035156 0.64844 0.046875h0.046875c0.14062 0 0.23438-0.035156 0.30469-0.09375 0.046875 0.011719 0.09375 0.011719 0.12891 0.011719 0.22266 0 0.28125-0.14062 0.28125-0.15234 0.046874-0.10547 0.046874-0.19922 0.011718-0.26953-0.070312-0.12891-0.22266-0.16406-0.46875-0.21094h-0.007812c-0.43359-0.09375-1.4219-0.45703-1.8008-0.63672-0.082031-0.035157-0.16406-0.082031-0.23437-0.11719-0.28125-0.14062-0.51563-0.26953-0.73047-0.23438-0.30469 0.035156-1.5625-0.082031-2-0.23438-0.61328-0.21094-1.4336-0.22266-1.8828-0.22266-0.33984 0.011719-0.96484-0.058594-1.5625-0.14062 0.070313-0.011719 0.12891-0.011719 0.19922-0.023438 0.63672-0.070312 1.3516-0.14062 1.6328-0.19922 0.44531-0.082032 0.76562 0.058594 0.85937 0.17578 0.19922 0.23438 1.4453 0.17578 1.6797 0.12891 0.24609-0.046875 0.45703-0.023437 0.67188 0 0.058594 0 0.11719 0.011719 0.16406 0.011719 0.24609 0.023438 0.66016 0.058594 0.66016 0.058594h0.070312c0.1875 0 0.31641-0.12891 0.36328-0.28125 0.11719 0.046875 0.26953 0.09375 0.36328 0.14062 0.058593 0.023437 0.39844 0.11719 0.66016 0.11719 0.14062 0 0.26953-0.023437 0.31641-0.10547 0-0.011719 0-0.011719 0.011719-0.023438 0.023438 0 0.046875-0.011719 0.070312-0.035156 0.082032-0.046875 0.11719-0.15234 0.12891-0.29297 0-0.058594-0.011719-0.10547-0.046875-0.14062h21.883l1.7305 1.1523c0.011719 0.046875 0.058594 0.082031 0.10547 0.082031h0.011718l2.7734 1.8477zm-1.3398-49.656v-1.1641h1.0586v1.1641zm1.293-0.55469 2.4102 1.7656c0.058593 0.14062 0.14062 0.24609 0.25781 0.32812l0.082031 0.15234c0.023438 0.035156 0.058594 0.058594 0.10547 0.058594h0.046875l0.011719 1.1172c-0.058594 0.011719-0.09375 0.058594-0.09375 0.11719v0.91797c-0.058594 0-0.09375 0.035156-0.10547 0.09375l-1.1758-0.68359v-1.4102c0-0.15234-0.12891-0.28125-0.28125-0.28125h-0.035156c-0.15234 0-0.28125 0.12891-0.28125 0.28125v0.32812h-0.24609c-0.070313 0-0.11719 0.046876-0.11719 0.11719v0.14062h-0.11719c-0.058594 0-0.10547 0.046875-0.11719 0.10547h-0.16406l-0.003906-1.2305c0-0.058594-0.046875-0.10547-0.09375-0.11719v-1.0469c0-0.058593-0.035156-0.10547-0.09375-0.11719v-0.63672zm25.41-0.46875 0.84766 1.3398c0.011719 0.011719 0.011719 0.035156 0.023437 0.046875l0.15234 0.23438 0.011719 0.011719c0.058594 0.082031 0.09375 0.17578 0.082031 0.26953-0.011718 0.09375-0.058594 0.1875-0.14062 0.24609s-0.17578 0.09375-0.26953 0.082031-0.1875-0.058594-0.25781-0.14062l-0.41016-0.51562c0.12891-0.011719 0.28125-0.058594 0.28125-0.1875l-0.003906-0.39844c0-0.10547-0.058594-0.21094-0.60156-0.24609v-0.19922c0-0.023437-0.011718-0.046875-0.023437-0.070313-0.023437-0.035156-0.058594-0.070312-0.22266-0.082031l0.003906-0.10938c0-0.023437-0.011719-0.046875-0.023437-0.070312-0.023438-0.035156-0.046876-0.046875-0.09375-0.058594v-0.16406zm2.8594 1.5039c0 0.011719-0.011719 0.023438-0.011719 0.046876 0 0.011718 0 0.035156 0.011719 0.046874v0.98828h-0.8125v-1.0938h0.8125zm46.766-0.48047v-1.1641h1.0586v1.1641zm-1.9531 2.6094-1.3633 1.082c-0.011718 0.011719-0.023437 0.011719-0.023437 0.023438l-0.95312 0.75391s-0.011719 0-0.011719 0.011718l-0.082031 0.058594c-0.035156-0.09375-0.09375-0.19922-0.1875-0.31641s-0.17578-0.19922-0.26953-0.26953l0.69531-0.55078 0.011719-0.011719 0.98828-0.77734c0.046875-0.011719 0.082031-0.035156 0.09375-0.070313l0.64844-0.51562c0.058593-0.046876 0.11719-0.070313 0.17578-0.070313 0.082031 0.011719 0.16406 0.070313 0.24609 0.1875v0.011719c0.011718 0.011718 0.011718 0.023437 0.023437 0.035156 0.046875 0.070312 0.082031 0.14062 0.09375 0.1875 0.042969 0.125-0.039062 0.19531-0.085937 0.23047zm-2.1406 15.309v-13.309l0.73047-0.57812v14.336zm-10.723-6.582c0.12891-0.046875 0.24609-0.15234 0.29297-0.28125 0.09375-0.011719 0.19922-0.023437 0.32812-0.058593 0.375-0.10547 0.78906-0.21094 1.082-0.23438 0.082031-0.011718 0.14062-0.011718 0.21094-0.023437 0.10547 0.11719 0.26953 0.19922 0.43359 0.19922 0.23438 0 0.43359-0.14062 0.52734-0.33984 0.046876 0.023438 0.082032 0.035156 0.11719 0.046875 0.023438 0.011719 0.035156 0.023437 0.058594 0.023437 0.023437 0 0.046875-0.011718 0.070312-0.023437l2.5977-2.0586c0.035157 0.023438 0.082032 0.035157 0.11719 0.035157s0.070312-0.011719 0.10547-0.035157l0.023437-0.023437 4.3398-3.4336c0.11719-0.09375 0.16406-0.19922 0.17578-0.31641v12.98zm11.723 11.559h-1.2578c-0.011718 0-0.023437-0.011719-0.035156-0.011719v-1.4219l1.1523 0.70703c0.046875 0.023438 0.09375 0.046876 0.14062 0.058594zm-1.8945 23.469c-0.023438-0.011719-0.046876-0.023437-0.070313-0.023437h-22.449c-0.14062-0.046876-0.30469-0.10547-0.43359-0.1875-0.1875-0.11719-0.39844-0.14063-0.61328-0.16406-0.23438-0.035156-0.48047-0.058594-0.71875-0.22266-0.49219-0.32812-0.625-0.31641-0.88281-0.26953-0.046875 0.011718-0.10547 0.023437-0.17578 0.035156-0.09375 0.011718-0.1875 0.035156-0.29297 0.046875-0.33984 0.058593-0.73047 0.14062-1.1523 0.023437-0.58984-0.16406-1.8008-0.19922-1.8477-0.19922-0.10547-0.011719-0.23438-0.011719-0.36328-0.023438-0.69531-0.046875-1.6445-0.10547-2.2695-0.26953-0.75391-0.21094-1.9766-0.32812-2.4688-0.33984-0.21094-0.011719-0.51562 0-0.84766 0.023437-0.36328 0.011719-0.74219 0.035157-0.95312 0.011719-0.31641-0.023437-0.77734-0.11719-0.95312-0.14062 1.2461-2.3164 1.5508-2.7383 1.7891-3 0.23438-0.24609 0.28125-0.33984 0.28125-0.41016 0.10547-0.14062 0.32813-0.43359 0.77734-1.0469 0.011719 0 0.011719-0.011719 0.023438-0.011719 0.023437-0.023437 0.046875-0.046875 0.11719-0.14062 0.12891-0.15234 0.35156-0.42188 0.64844-0.68359 0.375-0.32813 1.2578-0.77734 1.3633-0.82422 0.10547-0.023438 0.71875-0.1875 1.7773-0.8125 0.625-0.36328 1.4219-1.3398 1.7539-2.5156 0.16406-0.61328 0.12891-1.4805 0.11719-1.8125 0-0.058594 0.011718-0.12891 0.046874-0.17578 0.12891-0.23437 0.42188-0.67187 0.73047-1.1406 0.26953-0.41016 0.48047-0.67188 0.96484-1.293 0.25781-0.32812 0.58984-0.75391 1.0469-1.3398 1.0234-1.3164 1.5508-1.8477 2.0586-2.3516 0.15234-0.15234 0.29297-0.29297 0.44531-0.45703 0.43359-0.45703 0.85938-0.76562 1.082-0.91797 0.09375-0.070312 0.14062-0.10547 0.17578-0.14062 0.082031-0.058594 0.17578-0.11719 0.28125-0.1875 0.49219-0.31641 1.1641-0.76563 1.8008-1.3633 0.87109-0.82422 1.6211-1.8711 1.9297-2.3516 0.64844-1.0234 2.5039-2.8945 2.832-3.1992 0.22266-0.21094 0.57812-0.26953 0.63672-0.26953 0.22266 0.023437 0.84766 0.070312 1.1289-0.38672 0.17578-0.28125 0.14062-0.82422 0.10547-1.3047-0.011718-0.15234-0.023437-0.29297-0.023437-0.38672 0-0.71875 0.023437-1.2578 0.070313-1.457 0.070312-0.28125 0.09375-0.84766 0.070312-1.1289v-0.058593l12.816 7.8672v1.6914c0 0.058594 0.046875 0.11719 0.10547 0.11719v0.91797c0 0.070312 0.046875 0.11719 0.11719 0.11719h0.058594v22.625zm-23.527 0.28516c-0.023438-0.035156-0.058594-0.058593-0.10547-0.070312-0.035156-0.011719-0.070313-0.035157-0.11719-0.058594-0.11719-0.058594-0.28125-0.12891-0.45703-0.17578-0.070312-0.011719-0.11719-0.035156-0.15234-0.046875-0.10547-0.035157-0.16406-0.046875-0.41016-0.035157-0.058594 0.011719-0.24609-0.09375-0.39844-0.21094-0.046875-0.035156-0.12891-0.023437-0.16406 0.023437-0.035156 0.046876-0.023437 0.12891 0.023438 0.16406 0.082031 0.058594 0.375 0.26953 0.55078 0.24609 0.21094-0.011719 0.24609 0 0.31641 0.023437 0.046875 0.011719 0.09375 0.035156 0.17578 0.046875 0.15234 0.035157 0.30469 0.10547 0.41016 0.15234 0.046875 0.023437 0.09375 0.046875 0.12891 0.058594 0 0.023437 0 0.058593-0.035156 0.10547-0.023438 0.035156-0.070313 0.070312-0.15234 0.058593 0 0-0.42188-0.035156-0.67188-0.058593-0.046875 0-0.10547-0.011719-0.15234-0.011719-0.21094-0.023438-0.45703-0.046875-0.74219 0.011719-0.33984 0.070312-1.3281 0.046874-1.4453-0.046876-0.15234-0.1875-0.5625-0.35156-1.082-0.24609-0.26953 0.046875-1.0117 0.12891-1.6094 0.19922-0.45703 0.046874-0.84766 0.09375-0.98828 0.11719-0.023438 0-0.035157 0.011719-0.046875 0.023437-0.17578-0.023437-0.33984-0.046874-0.45703-0.058593-0.61328-0.082031-1.9766-0.21094-1.9883-0.21094-0.71875-0.082031-1.9414 0.023438-1.9883 0.035157h-0.011719c-0.011719-0.011719-1.1641-0.23438-1.1641-0.23438-0.25781-0.023437-0.68359-0.10547-1.1641-0.21094 0.011719-0.011719 0.011719-0.011719 0.023438-0.023437 0.11719-0.16406 0.25781-0.36328 0.50391-0.82422 0.10547-0.1875 0.19922-0.375 0.29297-0.55078 0.035156 0.011718 0.64844 0.12891 1.0586 0.16406 0.22266 0.023438 0.61328 0 0.98828-0.011719 0.30469-0.011719 0.625-0.023437 0.82422-0.023437 0.48047 0.011718 1.668 0.12891 2.4102 0.33984 0.66016 0.17578 1.6211 0.23437 2.3281 0.28125 0.12891 0.011718 0.24609 0.011718 0.36328 0.023437 0.011719 0 1.2344 0.035156 1.8008 0.19922 0.48047 0.12891 0.90625 0.046875 1.2578-0.011719 0.10547-0.023437 0.19922-0.035156 0.28125-0.046875s0.14062-0.023438 0.1875-0.035156c0.19922-0.035156 0.26953-0.046875 0.70703 0.23438 0.25781 0.16406 0.50391 0.21094 0.73047 0.24609 0.011719 0 0.023437 0.011719 0.035156 0.011719 0.17578 0.023438 0.39844 0.14062 0.39844 0.14062 0.070313 0.035156 0.67188 0.38672 0.83594 0.45703 0.035156 0.011718 0.058594 0.035156 0.070312 0.058593v0.035157c-0.10547 0.035156-0.55078-0.023438-0.69531-0.09375-0.15234-0.03125-0.41016-0.125-0.50391-0.16016zm2.0781 2.3867v-0.011719c0-0.046875-0.023438-0.09375-0.035157-0.11719 0.082032 0.023437 0.15234 0.035156 0.16406 0.058594 0 0 0 0.011718-0.011719 0.058593-0.007812 0-0.046875 0.011719-0.11719 0.011719zm-1.9023-0.4375c0.035156 0.011719 0.070313 0.023438 0.11719 0.035156 0.23438 0.082032 0.58984 0.19922 0.84766 0.24609 0.1875 0.035156 0.29297 0.058594 0.38672 0.070312 0.058593 0.011719 0.11719 0.023438 0.1875 0.035157 0.070312 0.011719 0.10547 0.023437 0.11719 0.023437v0.011719 0.011719c0 0.011718-0.011719 0.011718-0.011719 0.023437-0.023437 0.023438-0.070312 0.035157-0.17578 0.023438-0.19922-0.011719-0.45703-0.035157-0.60156-0.046875-0.011718-0.035156-0.023437-0.058594-0.035156-0.082032-0.070312-0.10547-0.22266-0.16406-0.49219-0.21094-0.1875-0.035156-0.58984-0.10547-0.71875-0.14062-0.12891-0.035156-0.64844-0.11719-0.67188-0.12891-0.058594-0.011719-0.12891 0.035156-0.14062 0.09375s0.035156 0.12891 0.09375 0.14062c0 0 0.52734 0.09375 0.64844 0.11719 0.14062 0.035156 0.5625 0.11719 0.73047 0.14062 0.31641 0.058594 0.33984 0.11719 0.33984 0.11719-0.011719 0.058593-0.10547 0.070312-0.41016 0.046875-0.11719-0.011719-0.24609-0.011719-0.38672-0.011719-0.24609 0-0.60156-0.011719-0.96484-0.023437-0.38672-0.011719-0.78906-0.023438-1.082-0.023438-0.5625 0-1.1406-0.12891-1.1406-0.12891-0.09375-0.023438-0.15234-0.058594-0.24609-0.10547-0.070312-0.046875-0.17578-0.09375-0.32812-0.15234-0.21094-0.082031-0.375-0.070312-0.64844-0.035156-0.1875 0.023437-0.43359 0.046875-0.8125 0.058594-0.035157 0-3.9883 0.070312-4.8438 0.011719-0.16406-0.011719-0.375-0.023438-0.61328-0.046876-0.83594-0.058593-1.9766-0.15234-2.6211-0.10547-0.80078 0.058594-2.1523-0.035156-3.1523-0.14062-0.5625-0.058594-1.2695-0.10547-1.9531-0.14062-0.52734-0.023438-1.0234-0.058594-1.375-0.09375-0.625-0.058594-1.0469-0.39844-1.2812-1.0117-0.14062-0.36328 0.26953-0.98828 0.43359-1.1992 0.035156-0.046875 0.035156-0.12891-0.023438-0.16406-0.046875-0.035156-0.12891-0.035156-0.16406 0.023437-0.011719 0.011719-0.16406 0.21094-0.30469 0.46875 0.058594-0.26953 0.12891-0.53906 0.19922-0.82422 0.023437-0.070312 0.035156-0.14062 0.058593-0.22266 0.14063-0.55078 0.26953-1.0703 1.1406-1.1875 1.0234-0.14062 2.375 0.16406 3.0117 0.68359 0.36328 0.29297 0.67188 0.69531 0.87109 0.97656-0.51562-0.12891-0.97656-0.25781-1.2461-0.32812-0.78906-0.22266-1.1875-0.22266-1.1992-0.22266-0.070313 0-0.11719 0.046875-0.11719 0.11719 0 0.070312 0.046875 0.11719 0.11719 0.11719 0 0 0.38672 0 1.1406 0.21094 0.31641 0.09375 3.832 0.95312 4.3516 1 0 0 1.1992 0.23438 1.2344 0.22266 0.011719 0 1.2461-0.10547 1.9414-0.035156 0.011719 0 1.375 0.12891 1.9766 0.21094 0.12891 0.011719 0.29297 0.035157 0.48047 0.070313 0.75391 0.10547 1.9062 0.26953 2.4336 0.25781 0.73047-0.023437 1.375 0.058594 1.8008 0.19922 0.46875 0.16406 1.7773 0.29297 2.1055 0.24609 0.14062-0.023438 0.35156 0.09375 0.60156 0.21094 0.082031 0.035156 0.16406 0.082032 0.24609 0.11719 0.23437 0.11719 0.70703 0.29297 1.1406 0.44531-0.24609-0.035156-0.58984-0.15234-0.8125-0.23438-0.046874-0.011719-0.082031-0.035156-0.11719-0.035156-0.14062-0.046875-0.52734-0.1875-0.71875-0.24609-0.058594-0.023437-0.12891 0.011719-0.15234 0.070313-0.023437 0.058594 0.011719 0.12891 0.070313 0.15234 0.20703 0.13281 0.58594 0.27344 0.73828 0.32031zm-24.203-1.1992c0.011719 0.070313-0.011719 0.14062-0.058594 0.19922-0.16406 0.19922-0.5625 0.31641-0.8125 0.33984 0 0-0.50391 0.070312-1.1406 0.046875-1.0469-0.046875-1.1875-0.16406-1.1992-0.21094-0.046874-0.15234-0.035156-0.22266-0.035156-0.22266 0.011719-0.035156 0-0.082031-0.011718-0.10547-0.023438-0.035156-0.058594-0.046875-0.09375-0.046875l-0.39844 0.011719c-1.3398-0.17578-2.0234-0.94141-2.0703-2.3516-0.046876-1.1641 0.53906-1.7188 0.55078-1.7305l0.011719-0.011719c0.035156-0.046875 0.32812-0.43359 0.39844-0.60156 0 0 0.16406-0.29297 0.375-0.66016 0.11719-0.19922 0.38672-0.28125 0.55078-0.29297-0.19922 0.15234-0.32812 0.29297-0.33984 0.30469-0.035156 0.035156-0.035156 0.082031-0.011718 0.12891 0.011718 0.023438 0.33984 0.69531 1.1992 1.1992 0.61328 0.36328 1.0234 0.97656 1.0586 1.1523-0.011718 0.035156-0.046875 0.16406-0.12891 0.1875-0.011719 0-0.011719 0-0.023438 0.011719-0.17578 0.082031-0.46875 0.32812-0.375 0.68359 0.11719 0.38672 0.36328 0.57812 0.83594 0.57812 0.1875 0 0.41016-0.023437 0.66016-0.082031 0.52734-0.11719 0.8125-0.69531 0.82422-0.73047 0.023437-0.058594 0-0.12891-0.058594-0.15234-0.058593-0.023437-0.12891 0-0.15234 0.058594 0 0-0.23438 0.50391-0.66016 0.60156-0.83594 0.1875-1.0703 0.011719-1.1641-0.16406 0.035156 0.035156 0.070312 0.070313 0.11719 0.09375 0.011719 0.011719 0.035156 0.011719 0.046875 0.011719 0.046875 0 0.082031-0.023437 0.10547-0.070313 0.023438-0.058593 0-0.12891-0.058594-0.15234-0.09375-0.035157-0.09375-0.17578-0.09375-0.17578 0-0.070313 0.15234-0.09375 0.24609-0.10547 0.023438 0.011719 0.09375 0.070312 0.16406 0.23438 0.023438 0.058594 0.09375 0.082031 0.15234 0.058594 0.011719-0.011719 0.023438-0.011719 0.035156-0.023438l0.011719 0.011719c0.023438 0.035156 0.058594 0.046875 0.09375 0.046875 0.023438 0 0.046875-0.011719 0.070313-0.023438 0.046875-0.035156 0.070312-0.10547 0.023437-0.16406-0.023437-0.035156-0.046875-0.070313-0.070312-0.10547 0.035156 0.011719 0.058593 0.023437 0.09375 0.023437-0.023438 0.035157-0.023438 0.082032 0 0.11719 0.035156 0.058594 0.10547 0.082031 0.15234 0.046875 0.070313-0.035156 0.28125-0.15234 0.31641-0.31641 0.011719-0.058594 0-0.11719-0.023438-0.16406-0.023437-0.023437-0.070312-0.10547-0.16406-0.10547s-0.14062 0.070312-0.17578 0.12891c-0.011719 0.023437-0.023438 0.035156-0.046876 0.058594-0.023437 0-0.10547-0.023438-0.17578-0.046876l-0.058593-0.023437c-0.11719-0.046875-0.17578 0.011719-0.19922 0.046875-0.011719 0.011719-0.011719 0.023438-0.023438 0.035156-0.070312-0.058594-0.12891-0.082031-0.14062-0.082031h-0.023437-0.070313c0.09375-0.09375 0.14062-0.22266 0.15234-0.30469v-0.023438c-0.023438-0.28125-0.51562-0.96484-1.1758-1.3516-0.63672-0.375-0.96484-0.85938-1.0586-1.0352 0.16406-0.16406 0.68359-0.63672 1.2109-0.53906 0.16406 0.023437 0.30469 0.070312 0.42188 0.10547-0.10547 0.070312-0.23438 0.28125-0.12891 0.95312 0.011719 0.058594 0.058594 0.10547 0.11719 0.10547h0.011719c0.058593-0.011719 0.10547-0.070312 0.09375-0.12891-0.082032-0.57812 0.023437-0.71875 0.035156-0.73047 0.046875-0.023437 0.070312-0.070312 0.058594-0.11719 0.023437 0.011719 0.046874 0.023437 0.070312 0.023437 0.25781 0.10547 0.46875 0.17578 0.70703 0.09375 0.023438-0.011718 0.57812-0.25781 0.80078-0.41016 0.19922-0.12891 0.25781-0.09375 0.32813-0.058594 0.035156 0.035156 0.035156 0.25781 0.035156 0.33984v0.070312c0 0.058594 0.046875 0.10547 0.10547 0.11719 0.011719 0.023438 0.035157 0.046875 0.070313 0.058594 0.023437 0 0.19922 0.058594 0.44531-0.023438 0.082031-0.023437 0.10547-0.023437 0.10547-0.023437 0.011719 0.011719 0.023438 0.046875 0.035156 0.082031 0.011719 0.023438 0.011719 0.070312 0.011719 0.11719 0 0.070312 0 0.16406-0.011719 0.22266-0.011718 0.058594 0.035157 0.11719 0.10547 0.12891h0.011719c0.058594 0 0.10547-0.046875 0.11719-0.10547 0-0.023437 0.011718-0.10547 0.011718-0.1875 0.035156-0.023437 0.09375-0.058593 0.15234-0.046875 0 0.011719 0.011719 0.035156 0 0.046875v0.023438c0 0.023437 0.023438 0.19922 0.25781 0.30469 0.09375 0.035156 0.17578 0.035156 0.25781 0.035156 0.10547 0 0.16406 0 0.21094 0.058594 0.070313 0.09375 0.14063 0.23438-0.070312 0.61328-0.023438 0.046874-0.046875 0.09375-0.070312 0.14062-0.16406 0.28125-0.29297 0.50391-0.1875 0.73047 0.10547 0.22266 0.1875 0.26953 0.51562 0.39844 0.10547 0.046875 0.22266 0.058593 0.33984 0.058593 0.22266 0 0.43359-0.070312 0.5625-0.14062-0.011718 0.16406-0.011718 0.26953-0.011718 0.29297-0.011719 0.082032-0.15234 1-0.26953 1.6211-0.10547 0.53906-0.15234 0.92969 0.023438 1.3281-0.69531-0.23438-2.0703-0.61328-2.1289-0.625h-0.011719c-0.023438 0-0.17578-0.011719-0.26953 0.082031 0 0.027344-0.046876 0.085938-0.023438 0.20312zm10.926-8.1367c0.97656 0.61328 1.7773 0.94141 2.3633 0.98828h0.14063 0.12891c-0.24609 0.32812-0.52734 0.71875-0.66016 0.87109-0.011719 0.011718-0.035157 0.023437-0.035157 0.035156-0.035156 0-0.082031-0.011719-0.15234-0.035156-0.29297-0.09375-2.75-1.6445-3.3047-2.2109-0.31641-0.32812-0.43359-0.49219-0.46875-0.57812 0.09375-0.082031 0.24609-0.24609 0.53906-0.5625 0.16797 0.32812 0.55469 0.92969 1.4492 1.4922zm-8.6328-24.941c-0.49219-0.71875-1.0469-1.1641-1.1289-1.2344-0.23437-0.26953-0.63672-0.60156-1.0586-0.96484-0.52734-0.44531-1.1406-0.96484-1.4922-1.3984l-0.10547-0.12891c-0.36328-0.46875-0.61328-0.77734-1.2578-1.1055-0.31641-0.16406-0.42188-0.30469-0.45703-0.33984-0.011719-0.082031 0-0.11719 0.023437-0.15234 0.035156-0.035157 0.12891-0.082032 0.38672-0.09375 0.14062 0 0.31641 0.10547 0.50391 0.22266 0.11719 0.070312 0.23438 0.14062 0.35156 0.21094 0.375 0.1875 0.87109 0.21094 1.0117 0.22266 0.45703 0.011718 1.2344 0.48047 1.2461 0.49219 0 0 0.011719 0 0.011719 0.011719 0.87109 0.38672 2.0352 0.41016 2.0703 0.41016 0.64844 0.046875 0.89453 0.10547 1.0586 0.26953 0.15234 0.15234 0.24609 0.58984 0.14062 0.80078-0.22266 0.43359-0.16406 0.74219 0.26953 1.5039 0.058593 0.10547 0.11719 0.21094 0.1875 0.31641-0.29297 0.046875-0.69531 0.26953-1.1523 0.52734-0.28125 0.16406-0.49219 0.36328-0.61328 0.50391 0.039063-0.027344 0.015626-0.050781 0.003907-0.074219zm45.805 6.0586v0l1.4453 0.89453c-0.21094 0.011719-0.375 0.17578-0.375 0.38672 0 0.070312 0.023437 0.14062 0.058593 0.1875l-1.1055-0.67188c-0.011719-0.011719-0.035156-0.023437-0.046875-0.035156l-13.016-7.9844c-0.011719-0.070313-0.023438-0.15234-0.035156-0.21094h0.046874c0.17578 0 0.33984-0.058594 0.48047-0.16406l0.070313-0.058594 0.14062 0.09375c0.046875 0.035156 0.09375 0.070312 0.15234 0.09375zm1.457 1.4219c-0.082032 0-0.15234-0.070313-0.15234-0.15234s0.070312-0.15234 0.15234-0.15234c0.082031 0 0.15234 0.070312 0.15234 0.15234 0 0.09375-0.070312 0.15234-0.15234 0.15234zm-13.359-9.5039c0.046876 0.023437 0.082032 0.070312 0.082032 0.12891 0 0.082031-0.070313 0.15234-0.15234 0.15234-0.070312 0-0.12891-0.046875-0.14062-0.11719zm0.011719-0.30469-0.082031 0.058594c-0.023438 0.011719-0.046875 0.023437-0.058594 0.046875l-0.46875 0.36328c-0.035156 0-0.070312 0.023438-0.09375 0.058594 0 0.011719 0 0.011719-0.011718 0.023437l-0.082032 0.058594c-0.12891 0.09375-0.28125 0.12891-0.43359 0.10547 0-0.011719-0.011718-0.011719-0.011718-0.011719-0.11719-0.12891-0.26953-0.36328-0.26953-0.48047 0-0.070313 0.011719-0.23438 0.011719-0.36328 0.046875-0.058594 0.10547-0.14062 0.12891-0.1875l0.68359-0.52734v0.082032c-0.003906 0.38672 0.30078 0.71484 0.6875 0.77344zm-1.5273-0.52734c-0.011719 0.011718-0.023438 0.023437-0.035157 0.035156-0.046875 0.082031-0.10547 0.16406-0.12891 0.1875-0.023437 0.023437-0.046875 0.058594-0.046875 0.09375 0 0.12891 0 0.32812-0.011719 0.41016-0.011719 0.22266 0.21094 0.50391 0.29297 0.61328 0 0.023438 0 0.035157 0.011719 0.046875 0.011719 0.046875 0.023437 0.11719 0.035156 0.1875-0.046875 0.011719-0.082031 0.046875-0.09375 0.09375 0 0-0.023437 0.1875-0.15234 0.48047-0.14062 0.31641-0.23438 0.55078-0.24609 0.58984-0.023438 0.058593 0.011718 0.12891 0.070312 0.15234 0.011719 0 0.023438 0.011719 0.035156 0.011719 0.046875 0 0.09375-0.035156 0.10547-0.082031 0.011719-0.035156 0.10547-0.26953 0.23438-0.57812 0.035156-0.082031 0.070312-0.16406 0.09375-0.23438v0.046875c0.023438 0.26953 0 0.80078-0.070312 1.0586-0.070313 0.30469-0.082032 1.1523-0.082032 1.5039 0 0.11719 0.011719 0.25781 0.023438 0.41016 0.023437 0.39844 0.058594 0.95312-0.070313 1.1758-0.14062 0.23438-0.43359 0.31641-0.91797 0.26953h-0.023437c-0.023437 0-0.46875 0.046875-0.78906 0.33984-0.058593 0.058593-0.17578 0.16406-0.31641 0.30469-0.10547-0.023437-0.29297-0.16406-0.46875-0.29297-0.11719-0.082031-0.23438-0.17578-0.36328-0.25781-0.5625-0.36328-0.71875-0.63672-0.74219-0.68359 0.046874-0.058594 0.082031-0.11719 0.12891-0.1875 0.19922-0.28125 0.39844-0.5625 0.58984-0.8125 0.63672-0.82422 1.9297-3.2109 2.0938-3.8672 0.058593-0.23437 0.082031-0.39844 0.09375-0.52734 0.023437-0.19922 0.035156-0.25781 0.15234-0.35156 0.011719-0.011718 0.035157-0.023437 0.046875-0.035156 0.11719-0.09375 0.1875-0.16406 0.48047-0.57812 0.035156-0.058594 0.058594-0.046875 0.070313-0.046875 0.082031 0.035156 0.17578 0.19922 0.17578 0.32812zm-31.434 36.629c-0.17578-0.14062-0.55078-0.51562-0.49219-0.83594 0 0.023438 0.011719 0.035156 0.011719 0.058594 0.12891 0.32812 0.30469 0.60156 0.53906 0.78906zm22.133-1.375zm23.328-26.234h0.74219v0.44531zm0.64844-0.23828h-1.0234l-0.058593-0.035157v-0.76562h0.36328l0.73047 0.44531zm-1.1406-1.0352h-0.058594c-0.070312 0-0.11719 0.046875-0.11719 0.11719v0.73047l-11.688-7.1719c0.17578-0.082031 0.29297-0.25781 0.29297-0.46875 0-0.14062-0.058593-0.26953-0.15234-0.36328l0.046874-0.035156 11.676 7.1602zm-11.973-7.9727c0-0.082031 0.070312-0.15234 0.15234-0.15234s0.15234 0.070313 0.15234 0.15234-0.070313 0.15234-0.15234 0.15234c-0.082031-0.007813-0.15234-0.066407-0.15234-0.15234zm0.15234-0.38672c-0.21094 0-0.38672 0.17578-0.38672 0.38672 0 0.09375 0.035157 0.1875 0.10547 0.25781l-0.046875-0.023438c-0.058594-0.035156-0.10547-0.10547-0.12891-0.17578-0.011719-0.070313 0-0.15234 0.035156-0.21094l0.09375-0.15234c0.035156-0.058594 0.10547-0.10547 0.17578-0.12891 0.070312-0.011719 0.15234 0 0.21094 0.035157l0.058594 0.035156c-0.03125-0.023438-0.066407-0.023438-0.11719-0.023438zm1.0234 0.070313c-0.011719-0.035157-0.023438-0.058594-0.011719-0.09375 0.011719-0.035157 0.035156-0.070313 0.058594-0.09375 0.011718 0.082031 0.046875 0.17578 0.12891 0.23438 0.011719 0.011718 0.023438 0.011718 0.035156 0.023437-0.023437 0.011719-0.046875 0.023438-0.058594 0.023438-0.011718 0-0.058593 0-0.12891 0.023437 0-0.046875 0-0.082031-0.023437-0.11719zm10.008-6.8438c0.10547 0.011719 0.23438 0.10547 0.36328 0.28125 0.30469 0.39844 0.16406 0.50391 0.09375 0.5625l-4.2109 3.3281c-0.011719-0.011719-0.011719-0.023438-0.023437-0.035156-0.058594-0.11719-0.15234-0.24609-0.26953-0.38672-0.09375-0.10547-0.23438-0.25781-0.36328-0.35156l4.2344-3.3516c0.058594-0.035156 0.11719-0.058594 0.17578-0.046875zm-4.5625 3.7148c0.011719 0 0.023438-0.011718 0.023438-0.023437 0.046875 0.046875 0.14062 0.12891 0.25781 0.26953 0.11719 0.14062 0.1875 0.23438 0.22266 0.29297l-2.4688 1.9648c-0.058594-0.12891-0.16406-0.25781-0.21094-0.31641-0.082031-0.10547-0.17578-0.1875-0.25781-0.24609zm-2.9258 2.4727c-0.023438-0.011719-0.035156-0.023438-0.058594-0.035157 0.035156-0.058593 0.10547-0.10547 0.17578-0.11719 0.070312-0.011719 0.14062 0.011719 0.1875 0.070313 0.046874 0.046874 0.070312 0.11719 0.070312 0.1875-0.011719 0.10547-0.09375 0.1875-0.19922 0.19922-0.035156 0-0.082031 0-0.11719-0.011718 0.023437-0.046876 0.035156-0.082032 0.035156-0.14063-0.011719-0.058593-0.046875-0.11719-0.09375-0.15234zm-1.9297 0.36328c0.023438-0.011719 0.058594-0.011719 0.09375-0.023438-0.035156 0.011719-0.058593 0.023438-0.09375 0.023438zm9.8906-9.5703h0.5625c0.023437 0.19922 0.12891 0.375 0.28125 0.49219h-0.85938zm0.87891 1.7383h-0.43359v-1.0117h0.91797v0.63672zm-0.32812 0.23438h0.035156l-0.035156 0.035156zm2.3398-0.97656c-0.011718-0.011719-0.011718-0.023437-0.023437-0.035156-0.035156-0.070313-0.011719-0.17578 0.070313-0.25781 0.011718-0.011718 0.023437-0.023437 0.046874-0.035156 0.011719 0.058594 0.046876 0.10547 0.082032 0.14062 0.046875 0.046875 0.09375 0.070313 0.15234 0.082031-0.011719 0.023438-0.023438 0.035157-0.046876 0.046876-0.09375 0.10547-0.22266 0.12891-0.28125 0.058593zm0.58984-0.59766c-0.011718-0.011719-0.011718-0.011719-0.023437-0.023437 0.09375-0.1875 0.31641-0.63672 0.52734-0.98828 0.15234-0.24609 0.32813-0.29297 0.42188-0.30469 0.011718 0.046875 0.058593 0.082031 0.10547 0.082031v0.23438c-0.11719 0.14062-0.69141 0.71875-1.0312 1zm0.92578-1.7305c-0.17578 0-0.46875 0.070313-0.73047 0.46875-0.24609 0.38672-0.49219 0.88281-0.61328 1.1289-0.12891 0.011719-0.26953 0.082032-0.375 0.1875-0.070313 0.070313-0.11719 0.14063-0.15234 0.23438-0.023438-0.011719-0.058594-0.023438-0.09375-0.023438-0.11719-0.011719-0.23438 0.023438-0.35156 0.11719l-0.49219 0.38672v-0.45703c0.023437-0.011719 0.035156-0.023437 0.046875-0.046875l0.082031-0.15234c0.11719-0.082031 0.21094-0.19922 0.25781-0.32812l2.4219-1.7656zm-3.832 1.0938h-0.57812v-0.28125h0.69531c-0.058594 0.082032-0.10547 0.1875-0.11719 0.28125zm-0.8125 0.11719v0 0.42188l-41.648 0.003906v-0.71875h41.652zm-42.801 0.97656c0.058594 0 0.10547-0.046875 0.11719-0.10547h0.92969c0.070312 0 0.11719-0.046876 0.11719-0.11719v-0.10547h41.652v0.070313c0 0.070312 0.046875 0.11719 0.11719 0.11719h0.32812v1.1289c0 0.058593 0.046875 0.10547 0.09375 0.11719v0.22266l-0.75391 0.58984h-0.011719c-0.11719-0.011719-0.23438 0.023437-0.33984 0.10547l-4.375 3.4688c-0.011719 0-0.011719 0.011718-0.023437 0.011718-0.070313 0.058594-0.058594 0.14063-0.046876 0.21094l-2.5273 2.0117c-0.011719 0.011719-0.023438 0.011719-0.035157 0.023437-0.023437 0.023438-0.046874 0.046875-0.046874 0.082032-0.26953 0.011718-0.48047 0.21094-0.52734 0.46875-0.09375 0.011718-0.25781 0.023437-0.375 0.035156-0.16406 0.011718-1.1172 0.10547-1.3398 0.12891-0.070312-0.035156-0.14062-0.058594-0.22266-0.058594-0.14062 0-0.26953 0.046875-0.375 0.14062-0.09375 0.09375-0.15234 0.22266-0.15234 0.36328v0.011719c-0.12891-0.28125-0.41016-0.46875-0.73047-0.46875-0.11719 0-0.22266 0.023438-0.32812 0.070313-0.011718 0-0.035156 0.011718-0.046875 0.023437l-0.011719 0.011719c-0.070312 0.035156-0.12891 0.09375-0.1875 0.14062l-0.64844 0.49219c-0.046875-0.16406-0.16406-0.32812-0.30469-0.38672-0.058594-0.023438-0.21094-0.058594-0.33984 0.12891-0.28125 0.39844-0.33984 0.44531-0.43359 0.52734-0.011719 0.011718-0.035156 0.023437-0.046875 0.046875-0.1875 0.15234-0.19922 0.28125-0.23438 0.50391-0.011719 0.12891-0.035156 0.28125-0.09375 0.50391-0.15234 0.625-1.4336 2.9883-2.0469 3.7734-0.19922 0.24609-0.39844 0.53906-0.60156 0.82422-0.43359 0.625-0.89453 1.2695-1.293 1.5625-0.09375 0.070312-0.21094 0.15234-0.32812 0.23437-0.60156 0.43359-1.4922 1.082-2.7617 2.1992-0.90625 0.80078-1.3047 1.1875-1.5391 1.4102-0.15234 0.15234-0.24609 0.23437-0.36328 0.32812-0.12891 0.09375-0.24609 0.15234-0.42188 0.22266-0.23438 0.10547-0.55078 0.24609-1.1289 0.57812-0.88281 0.50391-2.8477 2.1172-4.1523 3.1758-0.25781 0.21094-0.48047 0.39844-0.68359 0.55078-1.0938 0.88281-2.6211 2.2227-2.9531 2.5156-0.32812-0.36328-0.57812-0.76562-0.83594-1.1758-0.070313-0.11719-0.15234-0.24609-0.22266-0.36328-0.46875-0.74219-2.0117-2.9531-2.6797-3.75-0.10547-0.12891-0.22266-0.25781-0.32812-0.375-0.51562-0.60156-1.0117-1.1641-1.3867-2.2461-0.49219-1.4219-1.1523-2.5625-1.1523-2.5742-0.53906-1.0352-1.7422-2.5391-2.5391-3.5391-0.12891-0.15234-0.23438-0.30469-0.33984-0.42188-0.55078-0.70703-1.0586-1.3516-1.457-1.9531-0.011718-0.011719-0.011718-0.035156-0.035156-0.046875-0.10547-0.16406-0.19922-0.31641-0.29297-0.46875-0.42188-0.74219-0.43359-0.95312-0.26953-1.2812 0.16406-0.31641 0.035156-0.84766-0.1875-1.0703-0.21094-0.21094-0.50391-0.29297-1.2227-0.33984-0.011719 0-1.1523-0.023437-1.9766-0.38672-0.082031-0.046875-0.84766-0.50391-1.3516-0.51562-0.12891 0-0.58984-0.035157-0.91797-0.19922-0.11719-0.058594-0.22266-0.12891-0.33984-0.19922-0.22266-0.14062-0.43359-0.26953-0.64844-0.25781-0.28125 0.011719-0.45703 0.058593-0.55078 0.17578-0.09375 0.10547-0.09375 0.23438-0.082032 0.35156 0 0.011719 0 0.023438 0.011719 0.035157 0.011719 0.035156 0.11719 0.22266 0.5625 0.45703 0.60156 0.31641 0.8125 0.58984 1.1758 1.0469l0.10547 0.14062c0.375 0.45703 0.98828 0.97656 1.5273 1.4336 0.42188 0.35156 0.82422 0.69531 1.0352 0.94141 0 0.011719 0.011719 0.011719 0.011719 0.011719s0.58984 0.45703 1.082 1.1875c0.035156 0.046875 0.070313 0.09375 0.10547 0.15234 0 0.035157 0.023437 0.070313 0.046875 0.09375 0.011719 0 0.011719 0.011719 0.023437 0.011719 0.50391 0.74219 1.1875 1.7539 2.0352 3.6445 0.66016 1.4922 1.293 2.5156 1.668 3.1406 0.16406 0.25781 0.28125 0.44531 0.32812 0.55078 0 0 0.16406 0.41016 0.24609 0.87109 0.035156 0.24609 0.09375 0.38672 0.15234 0.53906s0.11719 0.30469 0.1875 0.60156c0.1875 0.90625 1.1758 3.4336 1.8359 4.8672 0.082031 0.17578 1.9414 4.4102 2.2812 5.0781 0.10547 0.21094 0.16406 0.36328 0.1875 0.46875-0.011719 0.011719-0.011719 0.011719-0.011719 0.023438 0 0.011718-0.31641 0.82422-0.70703 1.3867-0.39844 0.57812-1.0586 1.5273-1.0586 1.5391-0.023438 0.023437-0.023438 0.058593-0.023438 0.09375v0.011719c-0.23438 0.25781-0.49219 0.52734-0.60156 0.63672-0.046876 0-0.10547 0.011719-0.16406 0.070313-0.082031 0.058593-0.42188 0.41016-0.75391 0.82422-0.25781 0.33984-0.77734 0.80078-0.90625 0.92969-0.28125 0-1.6914 0.035156-2.5391 0.46875-0.70703 0.36328-1.2344 1.3047-1.5273 2.7148-0.082031 0.375-0.12891 0.74219-0.15234 1.0234l-0.09375 0.070313c-0.11719 0.082031-0.45703 0.19922-0.74219 0.09375-0.31641-0.11719-0.32812-0.12891-0.38672-0.26953-0.046874-0.10547 0.046876-0.28125 0.17578-0.50391 0.023437-0.046875 0.046875-0.09375 0.082031-0.14062 0.12891-0.23438 0.28125-0.60156 0.046875-0.88281-0.12891-0.15234-0.28125-0.15234-0.39844-0.15234-0.058593 0-0.11719 0-0.16406-0.023438-0.082031-0.035156-0.10547-0.082031-0.11719-0.09375 0.011719-0.12891-0.046874-0.25781-0.1875-0.28125-0.082031-0.011718-0.15234 0-0.22266 0.023438v-0.011719c-0.023437-0.070312-0.058594-0.16406-0.15234-0.21094-0.070312-0.035156-0.16406-0.035156-0.29297 0-0.17578 0.058594-0.30469 0.035156-0.30469 0.023437h-0.011718v-0.023437c0-0.22266 0-0.46875-0.16406-0.55078-0.17578-0.09375-0.33984-0.070312-0.5625 0.070313-0.21094 0.12891-0.76562 0.38672-0.76562 0.38672-0.15234 0.058594-0.30469 0-0.53906-0.09375-0.1875-0.070313-0.42188-0.16406-0.74219-0.22266-0.32812-0.058594-0.63672 0.046874-0.88281 0.1875-0.023438-0.035157-0.070313-0.058594-0.12891-0.058594-0.1875-0.023438-0.68359 0.058594-0.89453 0.41016-0.22266 0.36328-0.375 0.66016-0.38672 0.67188-0.058593 0.11719-0.28125 0.43359-0.375 0.55078-0.082031 0.082032-0.67188 0.69531-0.61328 1.9062 0.023438 0.49219 0.11719 0.91797 0.28125 1.2812l-12.32 0.007813h-0.011719-0.023438c-0.011719 0-0.011719 0-0.023437 0.011719h-0.011719l-0.082031 0.058593v-38.582h0.058594c0.070312 0 0.11719-0.046875 0.11719-0.11719l0.003906-0.91406c0.046875-0.011719 0.082031-0.058594 0.082031-0.10547v-1.1758h0.11719c0.011719 0.058594 0.058594 0.10547 0.11719 0.10547h0.082031v0.09375c0 0.070312 0.046875 0.11719 0.11719 0.11719h0.21094v0.26953c0 0.14062 0.11719 0.25781 0.25781 0.25781h0.023438c0.14062 0 0.25781-0.11719 0.25781-0.25781v-1.5742c0-0.14062-0.11719-0.25781-0.25781-0.25781h-0.023438c-0.14062 0-0.25781 0.11719-0.25781 0.25781v0.28125h-0.21094c-0.070312 0-0.11719 0.046875-0.11719 0.11719v0.11719h-0.082031c-0.058594 0-0.10547 0.046875-0.11719 0.09375h-0.11719v-1.0938c0-0.058594-0.035156-0.09375-0.082031-0.10547v-0.91797c0-0.046875-0.035156-0.09375-0.082031-0.10547l-0.011719-1.1172h0.22266c0.070312 0 0.11719-0.046875 0.11719-0.11719v-0.046874h18.922l-0.003906 0.10547c0 0.070313 0.046875 0.11719 0.11719 0.11719h0.90625c0.011719 0.058594 0.058594 0.10547 0.11719 0.10547h1.1875v0.09375c-0.035157 0.011719-0.046875 0.023438-0.070313 0.035157-0.023437 0.023437-0.035156 0.058593-0.035156 0.082031v0.039062c-0.10547 0.011719-0.12891 0.035157-0.15234 0.058594-0.023437 0.023438-0.035156 0.058594-0.035156 0.082032v0.12891c-0.38672 0.035156-0.48047 0.10547-0.48047 0.22266v0.31641c0 0.16406 0.21094 0.17578 0.32812 0.1875 0.14062 0.011719 0.32812 0.011719 0.55078 0.011719h0.14062 0.070313c0.1875 0 0.35156 0 0.48047-0.011719 0.12891-0.011718 0.32812-0.023437 0.32812-0.1875v-0.31641c0-0.09375-0.046875-0.1875-0.48047-0.22266v-0.14062c0-0.023438-0.011719-0.046875-0.023438-0.070313-0.023437-0.035156-0.046874-0.058594-0.17578-0.070312v-0.070313c0-0.023437-0.011719-0.046875-0.023437-0.070312-0.011719-0.023438-0.035156-0.046875-0.070313-0.046875v-0.09375zm-24.391 4.6328h-0.023438v-0.035157h1.293v0.035157zm1.4375-5.5156v0.48047l-0.85938 0.003907c0.15234-0.11719 0.25781-0.29297 0.28125-0.49219zm-0.98828 4.7891c0.035156 0 0.070312 0 0.10547-0.011718 0.19922-0.023438 0.36328-0.12891 0.48047-0.29297 0.11719-0.16406 0.16406-0.35156 0.14062-0.55078-0.035156-0.25781-0.21094-0.46875-0.43359-0.5625h0.51562v1.8711h-1.293v-0.625c0.14062 0.11328 0.32031 0.17188 0.48438 0.17188zm-0.4375-1.6836h0.023437 1.2227 0.023438v0.023438h-1.2227zm0.16406-2.3633h0.91797l0.011719 1.0234h-0.91797zm-0.082031 1.3281h1.0938v0.80078h-1.0938zm1.9648 2.4688v-0.55078h0.09375v0.55078zm0.32812 0.50781v-1.5742c0-0.011719 0.011719-0.023438 0.023437-0.023438h0.023438c0.011718 0 0.023437 0.011719 0.023437 0.023438v1.5742c0 0.011719-0.011719 0.023437-0.023437 0.023437h-0.023438c-0.011718 0-0.023437-0.011718-0.023437-0.023437zm19.488-4.3984c0-0.011719-0.011719-0.035156-0.011719-0.046875v-1.0586h0.035157v1.1055zm-0.26172-0.10547h-0.78906v-1.0117c0.17578 0.011718 0.41016 0.011718 0.68359 0.011718h0.11719zm2.2109 1.2461c-0.15234-0.023437-0.375-0.035156-0.71875-0.035156-0.33984 0-0.57812 0.011719-0.71875 0.035156v-0.082031c0.046875-0.011719 0.30469-0.058594 0.71875-0.058594 0.41016 0 0.68359 0.046875 0.71875 0.058594zm-0.72656-0.36328h-0.23438v-0.035156c0.046875 0 0.11719-0.011719 0.24609-0.011719 0.11719 0 0.1875 0 0.23438 0.011719v0.035156h-0.24609zm1.1758-0.77734h-0.035157v-1.293h0.035157zm-0.27344 0h-1.8711v-1.1055h0.070313l0.31641 0.39844c0.035156 0.29297 0.24609 0.55078 0.53906 0.625 0.058593 0.011719 0.12891 0.023438 0.1875 0.023438 0.32812 0 0.625-0.22266 0.71875-0.55078 0.046874-0.1875 0.023437-0.38672-0.070313-0.5625-0.023437-0.046875-0.046875-0.082031-0.082031-0.11719h0.19922v1.293zm-2.4922-2.3164s0.011719 0 0 0c0.011719 0 0 0 0 0zm0.023438 0h0.14062 0.011719-0.070313-0.082031c-0.011719 0 0 0 0 0zm-0.12891-0.23438c-0.023438 0-0.046875 0.011719-0.058594 0.011719l-0.14062-0.17578h0.19922zm0.19922 0.46875c0.17578 0 0.26953 0.011719 0.31641 0.011719v0.09375h-0.32812-0.32812v-0.09375c0.058593-0.011719 0.16406-0.011719 0.33984-0.011719zm-0.011718 0.34375c0.48047 0 0.89453 0.058594 0.92969 0.082031v0.15234c-0.17578-0.035156-0.45703-0.046875-0.92969-0.046875-0.46875 0-0.76562 0.011719-0.92969 0.046875v-0.15234c0.046875-0.023437 0.44922-0.082031 0.92969-0.082031zm-1 0.70312v0.71875h-18.918v-0.43359-0.011719-0.011718-0.25781c0-0.003906 18.918-0.003906 18.918-0.003906zm-19.152-0.11719v0.26953h-0.5625c-0.023438-0.10547-0.058594-0.19922-0.11719-0.28125zm-3.0938 2.8242v0.023438 0.30469c0 0.023438-0.023438 0.046875-0.046875 0.046875h-0.035156c-0.023438 0-0.046875-0.023437-0.046875-0.046875v-1.7773c0-0.023438 0.023437-0.046876 0.046875-0.046876h0.035156c0.023437 0 0.046875 0.023438 0.046875 0.046876zm-0.36719-0.88281v0.66016h-0.12891v-0.66016zm-0.98437 1.4336v0.023437h-1.4961v-2.1523h1.4922zm0.23437-0.89453h0.16406c0 0.070313 0.046875 0.11719 0.11719 0.11719h0.11719v0.11719c0 0.070313 0.046875 0.11719 0.11719 0.11719h0.24609v0.31641c0 0.15234 0.12891 0.28125 0.28125 0.28125h0.035157c0.15234 0 0.28125-0.12891 0.28125-0.28125v-0.10547l1.3516 0.78906c0.011719 0.011719 0.035156 0.023437 0.046875 0.023437l0.23438 0.14062c0.023438 0.035157 0.046875 0.046875 0.09375 0.046875l0.24609 0.14062 0.023437 0.011719c0.17578 0.09375 0.24609 0.32812 0.15234 0.50391-0.09375 0.17578-0.32812 0.24609-0.51562 0.14062l-0.25781-0.12891c-0.023438-0.023437-0.046876-0.035156-0.070313-0.035156l-2.6562-1.375v-0.82422zm3.9609 3.7773v0.80078h-0.011719c-0.011719-0.011719-0.035156-0.011719-0.046875-0.011719-0.011718 0-0.035156 0-0.046875 0.011719h-0.89453-0.023438-0.023437l-0.035156-0.003906v-0.79688zm-0.91797 16.262v-15.215h0.73047v38.781l-0.73047 0.51562zm67.711 23.906v-22.777h0.73047v23.27zm0.90625-23.012h-0.035157-0.023437-0.023437-1v-0.80078h1.0938zm-12.758-12.16c-0.023437-0.023438-0.046875-0.035156-0.070312-0.046875l-0.22266-0.14062c0.035156 0.011718 0.070312 0.011718 0.10547 0.011718 0.21094 0 0.38672-0.17578 0.38672-0.38672 0-0.10547-0.046875-0.19922-0.10547-0.26953l0.22266 0.14063c0.011719 0.011718 0.035157 0.023437 0.046876 0.035156l0.42187 0.25781s0 0.011719 0.011719 0.011719c0.011719 0.011719 0.023438 0.011719 0.035157 0.023437l10.832 6.6445c0.011719 0.011718 0.035156 0.023437 0.046875 0.035156l3.7969 2.3281v0.87109zm15.73 6.7383c-0.070313 0-0.11719 0.046875-0.11719 0.11719v1.0469h-0.011719c-0.070313 0-0.11719 0.046874-0.11719 0.11719v0.35156l-2.6797-1.6445v-14.664l1.3281-1.0469c0.070312-0.046875 0.17578-0.16406 0.1875-0.32812 0.14062-0.011719 0.28125-0.082032 0.39844-0.1875 0.11719-0.11719 0.1875-0.26953 0.19922-0.42188 0.28125-0.1875 0.66016-0.55078 0.89453-0.78906v17.449zm-51.387-19.781v-1.4922h2.1406v1.4922h-2.1406zm-23.551 24.074v-17.18h0.082031c0.070313 0 0.11719-0.046875 0.11719-0.11719v-1.0586c0.058594-0.011719 0.09375-0.058594 0.09375-0.11719v-0.23438l2.5156 1.3047v1.2539c0 0.058594 0.046875 0.11719 0.11719 0.11719v0.91797c0 0.070313 0.046875 0.11719 0.11719 0.11719h0.058594v39.449l-3.1172 2.2109zm75.023 26.785-3-2v-23.422h0.058594c0.070313 0 0.11719-0.046875 0.11719-0.11719v-0.92969c0.046875-0.011719 0.09375-0.058594 0.09375-0.11719v-0.77734h0.011718c0.12891-0.035157 0.23438-0.10547 0.30469-0.21094v0.10547c0 0.070312 0.046875 0.11719 0.11719 0.11719h0.21094v0.28125c0 0.14062 0.11719 0.25781 0.25781 0.25781h0.023437c0.14062 0 0.25781-0.11719 0.25781-0.25781v-1.5742c0-0.058594-0.023438-0.10547-0.046876-0.15234l1.2578 0.77734v1.2109c0 0.070313 0.046875 0.11719 0.11719 0.11719h0.011719v1.0469c0 0.070312 0.046875 0.11719 0.11719 0.11719h0.082031zm0.23438-31.078v-18.273h0.85937v18.273zm1.0703-19.922h-1.6797v-0.58984h2zm0.14062-1.1758 0.17578 0.35156h-2v-0.35156zm-2.0586 0.11719v0.83203l-47 0.003906v-0.83594zm-47.238-0.16406c-0.011719 0.011718-0.011719 0.035156-0.011719 0.046875s0 0.035156 0.011719 0.046875v1 0.023437 0.023438 0.10547h-0.94141l0.003906-1.2578zm-1.1758 1.3633h-0.070313v-1.4922h0.070313zm-3.9141-1.375h0.91797v1.2578h-0.91797zm-21.496 0.17578h21.273v0.83594h-21.051c-0.035157-0.011719-0.070313-0.011719-0.09375 0h-0.11719zm-2.082-0.11719h1.8242v0.35156h-2zm-0.16406 0.58984h2v0.58984l-1.6836-0.003906zm0.36328 2.3047h1.2578v0.92969h-1.2578zm1.2617 4.1523v0.94141l-1.2617-0.003906v-0.94141zm-1.0586 18.344v-17.18h0.85938v44.016l-0.035156 0.023438-0.011719 0.011719c-0.011719 0-0.011719 0.011718-0.011719 0.011718 0 0.011719-0.011718 0.011719-0.011718 0.023438 0 0.011718 0 0.011718-0.011719 0.023437v0.023438 1.2812l-0.003907 1.3633h-0.77734c0.003906 0 0.003906-29.598 0.003906-29.598zm-0.42578 35.77v-5.9375h1.1992v5.9375zm12.891 0.011719c-0.375 1.5977-1.0469 19.109-1.1172 20.848h-3.1406c0.24609-7.6211 0.67188-19.672 0.92969-20.789 0.35156-1.5273 1.5977-1.4336 1.6562-1.4336h2.6094c-0.375 0.21094-0.76172 0.60938-0.9375 1.375zm53.973 20.848c-0.070313-1.7422-0.77734-19.203-1.082-20.766-0.15234-0.82422-0.64844-1.2461-1.1055-1.457h1.9531c0.058594 0 1.5625 0 1.8477 1.5039 0.21094 1.082 0.63672 13.113 0.88281 20.719zm9.6094 6.0703h-6.668c-0.058593-2.0703-0.77734-25.258-1.082-26.836-0.31641-1.6797-2.0352-1.6914-2.082-1.6914h-2.9062-0.023438-48.906-0.15234-3.3984c-0.51562-0.046875-1.5742 0.22266-1.9062 1.6094-0.26953 1.1523-0.69531 13.289-0.92969 20.906-0.011718 0.011718-0.011718 0.035156-0.011718 0.046875s0 0.035156 0.011718 0.046875c-0.09375 3.0234-0.16406 5.3164-0.17578 5.9023h-6.7852v-34.344h75.035v34.359zm1.5859-26.93h-1.2812v-5.9375h1.2812zm-0.42188-6.1719h-0.85937v-28.34h0.85937zm1.293-30.738h-0.12891v-0.66016h0.12891zm0.36328 0.5625c0 0.023437-0.023437 0.046875-0.046874 0.046875h-0.035157c-0.023437 0-0.046875-0.023438-0.046875-0.046875v-1.7773c0-0.023437 0.023438-0.046875 0.046875-0.046875h0.035157c0.023437 0 0.046874 0.023438 0.046874 0.046875z"/>
<text x="0.0" y="117.5" font-size="5.0" font-weight="bold" font-family="Arbeit Regular, Helvetica, Arial-Unicode, Arial, Sans-serif" fill="#000000">Created by Hye Jee Kim</text><text x="0.0" y="122.5" font-size="5.0" font-weight="bold" font-family="Arbeit Regular, Helvetica, Arial-Unicode, Arial, Sans-serif" fill="#000000">from Noun Project</text></svg>